<svg width="36" height="36" viewBox="0 0 36 36" fill="none" xmlns="http://www.w3.org/2000/svg">
<path d="M13.275 25.2376L18 22.3876L22.725 25.275L21.4875 19.875L25.65 16.275L20.175 15.7875L18 10.6875L15.825 15.75L10.35 16.2375L14.5125 19.875L13.275 25.2376ZM18 25.9125L11.775 29.6625C11.5 29.8375 11.2125 29.9125 10.9125 29.8875C10.6125 29.8625 10.35 29.7625 10.125 29.5875C9.9 29.4125 9.725 29.194 9.6 28.932C9.475 28.67 9.45 28.3761 9.525 28.0501L11.175 20.9625L5.6625 16.2C5.4125 15.975 5.2565 15.7185 5.1945 15.4305C5.1325 15.1425 5.151 14.8615 5.25 14.5875C5.349 14.3135 5.499 14.0885 5.7 13.9125C5.901 13.7365 6.176 13.624 6.525 13.575L13.8 12.9375L16.6125 6.26255C16.7375 5.96255 16.9315 5.73755 17.1945 5.58755C17.4575 5.43755 17.726 5.36255 18 5.36255C18.274 5.36255 18.5425 5.43755 18.8055 5.58755C19.0685 5.73755 19.2625 5.96255 19.3875 6.26255L22.2 12.9375L29.475 13.575C29.825 13.625 30.1 13.7375 30.3 13.9125C30.5 14.0875 30.65 14.3125 30.75 14.5875C30.85 14.8625 30.869 15.144 30.807 15.432C30.745 15.72 30.5885 15.976 30.3375 16.2L24.825 20.9625L26.475 28.0501C26.55 28.375 26.525 28.6691 26.4 28.932C26.275 29.195 26.1 29.4135 25.875 29.5875C25.65 29.7615 25.3875 29.8615 25.0875 29.8875C24.7875 29.9135 24.5 29.8385 24.225 29.6625L18 25.9125Z" fill="black"/>
</svg>
