<svg width="26" height="25" viewBox="0 0 26 25" fill="none" xmlns="http://www.w3.org/2000/svg">
<path d="M12.8413 20.55L6.61631 24.3C6.34131 24.475 6.05381 24.55 5.75381 24.525C5.45381 24.5 5.19131 24.4 4.96631 24.225C4.74131 24.05 4.56631 23.8315 4.44131 23.5695C4.31631 23.3075 4.29131 23.0135 4.36631 22.6875L6.01631 15.6L0.503814 10.8375C0.253814 10.6125 0.0978137 10.356 0.0358137 10.068C-0.0261863 9.78 -0.0076864 9.499 0.0913136 9.225C0.190314 8.951 0.340314 8.726 0.541314 8.55C0.742314 8.374 1.01731 8.2615 1.36631 8.2125L8.64131 7.575L11.4538 0.9C11.5788 0.6 11.7728 0.375 12.0358 0.225C12.2988 0.0749998 12.5673 0 12.8413 0C13.1153 0 13.3838 0.0749998 13.6468 0.225C13.9098 0.375 14.1038 0.6 14.2288 0.9L17.0413 7.575L24.3163 8.2125C24.6663 8.2625 24.9413 8.375 25.1413 8.55C25.3413 8.725 25.4913 8.95 25.5913 9.225C25.6913 9.5 25.7103 9.7815 25.6483 10.0695C25.5863 10.3575 25.4298 10.6135 25.1788 10.8375L19.6663 15.6L21.3163 22.6875C21.3913 23.0125 21.3663 23.3065 21.2413 23.5695C21.1163 23.8325 20.9413 24.051 20.7163 24.225C20.4913 24.399 20.2288 24.499 19.9288 24.525C19.6288 24.551 19.3413 24.476 19.0663 24.3L12.8413 20.55Z" fill="black"/>
</svg>
