<svg width="42" height="39" viewBox="0 0 42 39" fill="none" xmlns="http://www.w3.org/2000/svg">
<path d="M20.9997 11.0007C25.1337 11.0007 28.52 14.3781 28.52 18.5C28.52 19.4926 28.3223 20.4419 27.9662 21.3112C27.8894 21.5404 27.7934 21.7627 27.6792 21.9757L21.9111 31.792C21.3019 32.6177 20.8152 32.7994 20.0824 31.8427L14.8525 22.8021C13.9595 21.5453 13.4795 20.0418 13.4793 18.5C13.4793 14.3777 16.8657 11.0003 20.9997 11.0003M20.9997 14.5142C18.7735 14.5142 17.0029 16.2798 17.0029 18.4997C17.0029 20.7195 18.7735 22.4851 20.9997 22.4851C23.2258 22.4851 24.9964 20.7195 24.9964 18.5C24.9964 16.2802 23.2258 14.515 20.9997 14.515M20.9872 1.52881C20.5103 1.52959 20.051 1.70862 19.6994 2.03074L2.0753 17.5695L2.05892 17.5843C1.49186 18.1089 1.36004 18.9649 1.64552 19.5897C1.931 20.2145 2.60024 20.6618 3.35918 20.6622H7.90346V35.6803C7.90346 36.7056 8.79578 37.4704 9.77429 37.4708H32.2243C33.2028 37.4708 34.0951 36.7056 34.0951 35.6807V20.6622H38.6398C39.3987 20.6622 40.0679 20.2153 40.3534 19.5901C40.6389 18.9653 40.5071 18.1089 39.94 17.5843L39.9236 17.5695L22.2995 2.03074C21.9416 1.70276 21.4726 1.5233 20.9872 1.52881Z" stroke="#6E232F" stroke-width="3"/>
</svg>
