<svg width="43" height="43" viewBox="0 0 43 43" fill="none" xmlns="http://www.w3.org/2000/svg">
<path d="M21.4999 39.4166C31.3953 39.4166 39.4166 31.3954 39.4166 21.5C39.4166 11.6046 31.3953 3.58331 21.4999 3.58331C11.6045 3.58331 3.58325 11.6046 3.58325 21.5C3.58325 31.3954 11.6045 39.4166 21.4999 39.4166Z" stroke="#6E232F" stroke-width="3" stroke-linecap="round" stroke-linejoin="round"/>
<path d="M21.4999 20.6041C22.6879 20.6041 23.8272 20.1322 24.6672 19.2922C25.5072 18.4522 25.9791 17.3129 25.9791 16.125C25.9791 14.937 25.5072 13.7977 24.6672 12.9577C23.8272 12.1177 22.6879 11.6458 21.4999 11.6458C20.312 11.6458 19.1727 12.1177 18.3327 12.9577C17.4927 13.7977 17.0208 14.937 17.0208 16.125C17.0208 17.3129 17.4927 18.4522 18.3327 19.2922C19.1727 20.1322 20.312 20.6041 21.4999 20.6041Z" fill="#6E232F" stroke="#6E232F" stroke-width="3" stroke-linejoin="round"/>
<path d="M8.97803 34.339C9.28619 29.6709 13.1705 25.9791 17.9167 25.9791H25.0833C29.8232 25.9791 33.7039 29.661 34.0211 34.3202" fill="#6E232F"/>
<path d="M8.97803 34.339C9.28619 29.6709 13.1705 25.9791 17.9167 25.9791H25.0833C29.8232 25.9791 33.7039 29.661 34.0211 34.3202" stroke="#6E232F" stroke-width="3" stroke-linecap="round" stroke-linejoin="round"/>
</svg>
